<mxfile host="app.diagrams.net" modified="2023-07-31T02:39:46.896Z" agent="Mozilla/5.0 (Windows NT 10.0; Win64; x64) AppleWebKit/537.36 (KHTML, like Gecko) Chrome/115.0.0.0 Safari/537.36" etag="G2qcjLqU4M3lveiGw_gE" version="21.6.6" type="device">
  <diagram name="Page-1" id="kWl_5M5Enpe4TfgvHlWh">
    <mxGraphModel dx="2514" dy="1389" grid="1" gridSize="10" guides="1" tooltips="1" connect="1" arrows="1" fold="1" page="1" pageScale="1" pageWidth="850" pageHeight="1100" math="0" shadow="0">
      <root>
        <mxCell id="0" />
        <mxCell id="1" parent="0" />
        <mxCell id="sX3FHNxolE8uPbMF-0tE-25" value="" style="edgeStyle=orthogonalEdgeStyle;rounded=0;orthogonalLoop=1;jettySize=auto;html=1;" edge="1" parent="1" source="sX3FHNxolE8uPbMF-0tE-1" target="sX3FHNxolE8uPbMF-0tE-3">
          <mxGeometry relative="1" as="geometry" />
        </mxCell>
        <mxCell id="sX3FHNxolE8uPbMF-0tE-1" value="&lt;font style=&quot;font-size: 18px;&quot;&gt;1&lt;/font&gt;" style="ellipse;whiteSpace=wrap;html=1;aspect=fixed;" vertex="1" parent="1">
          <mxGeometry x="400" y="70" width="50" height="50" as="geometry" />
        </mxCell>
        <mxCell id="sX3FHNxolE8uPbMF-0tE-2" value="&lt;font style=&quot;font-size: 18px;&quot;&gt;2&lt;/font&gt;" style="ellipse;whiteSpace=wrap;html=1;aspect=fixed;" vertex="1" parent="1">
          <mxGeometry x="400" y="150" width="50" height="50" as="geometry" />
        </mxCell>
        <mxCell id="sX3FHNxolE8uPbMF-0tE-26" value="" style="edgeStyle=orthogonalEdgeStyle;rounded=0;orthogonalLoop=1;jettySize=auto;html=1;" edge="1" parent="1" source="sX3FHNxolE8uPbMF-0tE-3" target="sX3FHNxolE8uPbMF-0tE-5">
          <mxGeometry relative="1" as="geometry" />
        </mxCell>
        <mxCell id="sX3FHNxolE8uPbMF-0tE-3" value="&lt;font style=&quot;font-size: 18px;&quot;&gt;3&lt;/font&gt;" style="ellipse;whiteSpace=wrap;html=1;aspect=fixed;" vertex="1" parent="1">
          <mxGeometry x="400" y="230" width="50" height="50" as="geometry" />
        </mxCell>
        <mxCell id="sX3FHNxolE8uPbMF-0tE-4" value="&lt;font style=&quot;font-size: 18px;&quot;&gt;4&lt;/font&gt;" style="ellipse;whiteSpace=wrap;html=1;aspect=fixed;" vertex="1" parent="1">
          <mxGeometry x="400" y="310" width="50" height="50" as="geometry" />
        </mxCell>
        <mxCell id="sX3FHNxolE8uPbMF-0tE-27" value="" style="edgeStyle=orthogonalEdgeStyle;rounded=0;orthogonalLoop=1;jettySize=auto;html=1;" edge="1" parent="1" source="sX3FHNxolE8uPbMF-0tE-5" target="sX3FHNxolE8uPbMF-0tE-7">
          <mxGeometry relative="1" as="geometry" />
        </mxCell>
        <mxCell id="sX3FHNxolE8uPbMF-0tE-5" value="&lt;font style=&quot;font-size: 18px;&quot;&gt;5&lt;/font&gt;" style="ellipse;whiteSpace=wrap;html=1;aspect=fixed;" vertex="1" parent="1">
          <mxGeometry x="400" y="390" width="50" height="50" as="geometry" />
        </mxCell>
        <mxCell id="sX3FHNxolE8uPbMF-0tE-6" value="&lt;font style=&quot;font-size: 18px;&quot;&gt;6&lt;/font&gt;" style="ellipse;whiteSpace=wrap;html=1;aspect=fixed;" vertex="1" parent="1">
          <mxGeometry x="400" y="470" width="50" height="50" as="geometry" />
        </mxCell>
        <mxCell id="sX3FHNxolE8uPbMF-0tE-28" value="" style="edgeStyle=orthogonalEdgeStyle;rounded=0;orthogonalLoop=1;jettySize=auto;html=1;" edge="1" parent="1" source="sX3FHNxolE8uPbMF-0tE-7" target="sX3FHNxolE8uPbMF-0tE-9">
          <mxGeometry relative="1" as="geometry" />
        </mxCell>
        <mxCell id="sX3FHNxolE8uPbMF-0tE-7" value="&lt;font style=&quot;font-size: 18px;&quot;&gt;7&lt;/font&gt;" style="ellipse;whiteSpace=wrap;html=1;aspect=fixed;" vertex="1" parent="1">
          <mxGeometry x="400" y="550" width="50" height="50" as="geometry" />
        </mxCell>
        <mxCell id="sX3FHNxolE8uPbMF-0tE-8" value="&lt;font style=&quot;font-size: 18px;&quot;&gt;8&lt;/font&gt;" style="ellipse;whiteSpace=wrap;html=1;aspect=fixed;" vertex="1" parent="1">
          <mxGeometry x="400" y="630" width="50" height="50" as="geometry" />
        </mxCell>
        <mxCell id="sX3FHNxolE8uPbMF-0tE-29" value="" style="edgeStyle=orthogonalEdgeStyle;rounded=0;orthogonalLoop=1;jettySize=auto;html=1;" edge="1" parent="1" source="sX3FHNxolE8uPbMF-0tE-9" target="sX3FHNxolE8uPbMF-0tE-11">
          <mxGeometry relative="1" as="geometry" />
        </mxCell>
        <mxCell id="sX3FHNxolE8uPbMF-0tE-9" value="&lt;font style=&quot;font-size: 18px;&quot;&gt;9&lt;/font&gt;" style="ellipse;whiteSpace=wrap;html=1;aspect=fixed;" vertex="1" parent="1">
          <mxGeometry x="400" y="710" width="50" height="50" as="geometry" />
        </mxCell>
        <mxCell id="sX3FHNxolE8uPbMF-0tE-10" value="&lt;font style=&quot;font-size: 18px;&quot;&gt;10&lt;/font&gt;" style="ellipse;whiteSpace=wrap;html=1;aspect=fixed;" vertex="1" parent="1">
          <mxGeometry x="400" y="790" width="50" height="50" as="geometry" />
        </mxCell>
        <mxCell id="sX3FHNxolE8uPbMF-0tE-30" value="" style="edgeStyle=orthogonalEdgeStyle;rounded=0;orthogonalLoop=1;jettySize=auto;html=1;" edge="1" parent="1" source="sX3FHNxolE8uPbMF-0tE-11" target="sX3FHNxolE8uPbMF-0tE-13">
          <mxGeometry relative="1" as="geometry" />
        </mxCell>
        <mxCell id="sX3FHNxolE8uPbMF-0tE-11" value="&lt;font style=&quot;font-size: 18px;&quot;&gt;11&lt;/font&gt;" style="ellipse;whiteSpace=wrap;html=1;aspect=fixed;" vertex="1" parent="1">
          <mxGeometry x="400" y="870" width="50" height="50" as="geometry" />
        </mxCell>
        <mxCell id="sX3FHNxolE8uPbMF-0tE-12" value="&lt;font style=&quot;font-size: 18px;&quot;&gt;12&lt;/font&gt;" style="ellipse;whiteSpace=wrap;html=1;aspect=fixed;" vertex="1" parent="1">
          <mxGeometry x="400" y="950" width="50" height="50" as="geometry" />
        </mxCell>
        <mxCell id="sX3FHNxolE8uPbMF-0tE-31" value="" style="edgeStyle=orthogonalEdgeStyle;rounded=0;orthogonalLoop=1;jettySize=auto;html=1;" edge="1" parent="1" source="sX3FHNxolE8uPbMF-0tE-13" target="sX3FHNxolE8uPbMF-0tE-15">
          <mxGeometry relative="1" as="geometry" />
        </mxCell>
        <mxCell id="sX3FHNxolE8uPbMF-0tE-13" value="&lt;font style=&quot;font-size: 18px;&quot;&gt;10&lt;/font&gt;" style="ellipse;whiteSpace=wrap;html=1;aspect=fixed;" vertex="1" parent="1">
          <mxGeometry x="400" y="1030" width="50" height="50" as="geometry" />
        </mxCell>
        <mxCell id="sX3FHNxolE8uPbMF-0tE-14" value="&lt;font style=&quot;font-size: 18px;&quot;&gt;11&lt;/font&gt;" style="ellipse;whiteSpace=wrap;html=1;aspect=fixed;" vertex="1" parent="1">
          <mxGeometry x="400" y="1110" width="50" height="50" as="geometry" />
        </mxCell>
        <mxCell id="sX3FHNxolE8uPbMF-0tE-32" value="" style="edgeStyle=orthogonalEdgeStyle;rounded=0;orthogonalLoop=1;jettySize=auto;html=1;" edge="1" parent="1" source="sX3FHNxolE8uPbMF-0tE-15" target="sX3FHNxolE8uPbMF-0tE-17">
          <mxGeometry relative="1" as="geometry" />
        </mxCell>
        <mxCell id="sX3FHNxolE8uPbMF-0tE-15" value="&lt;font style=&quot;font-size: 18px;&quot;&gt;12&lt;/font&gt;" style="ellipse;whiteSpace=wrap;html=1;aspect=fixed;" vertex="1" parent="1">
          <mxGeometry x="400" y="1190" width="50" height="50" as="geometry" />
        </mxCell>
        <mxCell id="sX3FHNxolE8uPbMF-0tE-16" value="&lt;font style=&quot;font-size: 18px;&quot;&gt;13&lt;/font&gt;" style="ellipse;whiteSpace=wrap;html=1;aspect=fixed;" vertex="1" parent="1">
          <mxGeometry x="400" y="1270" width="50" height="50" as="geometry" />
        </mxCell>
        <mxCell id="sX3FHNxolE8uPbMF-0tE-33" value="" style="edgeStyle=orthogonalEdgeStyle;rounded=0;orthogonalLoop=1;jettySize=auto;html=1;" edge="1" parent="1" source="sX3FHNxolE8uPbMF-0tE-17" target="sX3FHNxolE8uPbMF-0tE-19">
          <mxGeometry relative="1" as="geometry" />
        </mxCell>
        <mxCell id="sX3FHNxolE8uPbMF-0tE-17" value="&lt;font style=&quot;font-size: 18px;&quot;&gt;14&lt;/font&gt;" style="ellipse;whiteSpace=wrap;html=1;aspect=fixed;" vertex="1" parent="1">
          <mxGeometry x="400" y="1350" width="50" height="50" as="geometry" />
        </mxCell>
        <mxCell id="sX3FHNxolE8uPbMF-0tE-18" value="&lt;font style=&quot;font-size: 18px;&quot;&gt;15&lt;/font&gt;" style="ellipse;whiteSpace=wrap;html=1;aspect=fixed;" vertex="1" parent="1">
          <mxGeometry x="400" y="1430" width="50" height="50" as="geometry" />
        </mxCell>
        <mxCell id="sX3FHNxolE8uPbMF-0tE-34" value="" style="edgeStyle=orthogonalEdgeStyle;rounded=0;orthogonalLoop=1;jettySize=auto;html=1;" edge="1" parent="1" source="sX3FHNxolE8uPbMF-0tE-19" target="sX3FHNxolE8uPbMF-0tE-21">
          <mxGeometry relative="1" as="geometry" />
        </mxCell>
        <mxCell id="sX3FHNxolE8uPbMF-0tE-19" value="&lt;font style=&quot;font-size: 18px;&quot;&gt;16&lt;/font&gt;" style="ellipse;whiteSpace=wrap;html=1;aspect=fixed;" vertex="1" parent="1">
          <mxGeometry x="400" y="1510" width="50" height="50" as="geometry" />
        </mxCell>
        <mxCell id="sX3FHNxolE8uPbMF-0tE-20" value="&lt;font style=&quot;font-size: 18px;&quot;&gt;17&lt;/font&gt;" style="ellipse;whiteSpace=wrap;html=1;aspect=fixed;" vertex="1" parent="1">
          <mxGeometry x="400" y="1590" width="50" height="50" as="geometry" />
        </mxCell>
        <mxCell id="sX3FHNxolE8uPbMF-0tE-35" value="" style="edgeStyle=orthogonalEdgeStyle;rounded=0;orthogonalLoop=1;jettySize=auto;html=1;" edge="1" parent="1" source="sX3FHNxolE8uPbMF-0tE-21" target="sX3FHNxolE8uPbMF-0tE-23">
          <mxGeometry relative="1" as="geometry" />
        </mxCell>
        <mxCell id="sX3FHNxolE8uPbMF-0tE-21" value="&lt;font style=&quot;font-size: 18px;&quot;&gt;18&lt;/font&gt;" style="ellipse;whiteSpace=wrap;html=1;aspect=fixed;" vertex="1" parent="1">
          <mxGeometry x="400" y="1670" width="50" height="50" as="geometry" />
        </mxCell>
        <mxCell id="sX3FHNxolE8uPbMF-0tE-22" value="&lt;font style=&quot;font-size: 18px;&quot;&gt;19&lt;/font&gt;" style="ellipse;whiteSpace=wrap;html=1;aspect=fixed;" vertex="1" parent="1">
          <mxGeometry x="400" y="1750" width="50" height="50" as="geometry" />
        </mxCell>
        <mxCell id="sX3FHNxolE8uPbMF-0tE-36" value="" style="edgeStyle=orthogonalEdgeStyle;rounded=0;orthogonalLoop=1;jettySize=auto;html=1;" edge="1" parent="1" source="sX3FHNxolE8uPbMF-0tE-23" target="sX3FHNxolE8uPbMF-0tE-24">
          <mxGeometry relative="1" as="geometry" />
        </mxCell>
        <mxCell id="sX3FHNxolE8uPbMF-0tE-23" value="&lt;font style=&quot;font-size: 18px;&quot;&gt;20&lt;/font&gt;" style="ellipse;whiteSpace=wrap;html=1;aspect=fixed;" vertex="1" parent="1">
          <mxGeometry x="400" y="1830" width="50" height="50" as="geometry" />
        </mxCell>
        <mxCell id="sX3FHNxolE8uPbMF-0tE-42" value="" style="edgeStyle=orthogonalEdgeStyle;rounded=0;orthogonalLoop=1;jettySize=auto;html=1;" edge="1" parent="1" source="sX3FHNxolE8uPbMF-0tE-24" target="sX3FHNxolE8uPbMF-0tE-41">
          <mxGeometry relative="1" as="geometry" />
        </mxCell>
        <mxCell id="sX3FHNxolE8uPbMF-0tE-24" value="&lt;font style=&quot;font-size: 18px;&quot;&gt;21&lt;/font&gt;" style="ellipse;whiteSpace=wrap;html=1;aspect=fixed;" vertex="1" parent="1">
          <mxGeometry x="400" y="1910" width="50" height="50" as="geometry" />
        </mxCell>
        <mxCell id="sX3FHNxolE8uPbMF-0tE-39" value="" style="edgeStyle=orthogonalEdgeStyle;rounded=0;orthogonalLoop=1;jettySize=auto;html=1;" edge="1" source="sX3FHNxolE8uPbMF-0tE-40" target="sX3FHNxolE8uPbMF-0tE-41" parent="1">
          <mxGeometry relative="1" as="geometry" />
        </mxCell>
        <mxCell id="sX3FHNxolE8uPbMF-0tE-40" value="&lt;font style=&quot;font-size: 18px;&quot;&gt;22&lt;/font&gt;" style="ellipse;whiteSpace=wrap;html=1;aspect=fixed;" vertex="1" parent="1">
          <mxGeometry x="400" y="1990" width="50" height="50" as="geometry" />
        </mxCell>
        <mxCell id="sX3FHNxolE8uPbMF-0tE-41" value="&lt;font style=&quot;font-size: 18px;&quot;&gt;23&lt;/font&gt;" style="ellipse;whiteSpace=wrap;html=1;aspect=fixed;" vertex="1" parent="1">
          <mxGeometry x="400" y="2070" width="50" height="50" as="geometry" />
        </mxCell>
        <mxCell id="sX3FHNxolE8uPbMF-0tE-43" value="&lt;font style=&quot;font-size: 18px;&quot;&gt;24&lt;/font&gt;" style="ellipse;whiteSpace=wrap;html=1;aspect=fixed;" vertex="1" parent="1">
          <mxGeometry x="325" y="2150" width="50" height="50" as="geometry" />
        </mxCell>
        <mxCell id="sX3FHNxolE8uPbMF-0tE-53" value="" style="edgeStyle=orthogonalEdgeStyle;rounded=0;orthogonalLoop=1;jettySize=auto;html=1;" edge="1" parent="1" source="sX3FHNxolE8uPbMF-0tE-45" target="sX3FHNxolE8uPbMF-0tE-52">
          <mxGeometry relative="1" as="geometry" />
        </mxCell>
        <mxCell id="sX3FHNxolE8uPbMF-0tE-45" value="&lt;font style=&quot;font-size: 18px;&quot;&gt;27&lt;/font&gt;" style="ellipse;whiteSpace=wrap;html=1;aspect=fixed;" vertex="1" parent="1">
          <mxGeometry x="480" y="2150" width="50" height="50" as="geometry" />
        </mxCell>
        <mxCell id="sX3FHNxolE8uPbMF-0tE-46" value="" style="endArrow=classic;html=1;rounded=0;exitX=0;exitY=0.5;exitDx=0;exitDy=0;entryX=0.5;entryY=0;entryDx=0;entryDy=0;" edge="1" parent="1" source="sX3FHNxolE8uPbMF-0tE-41" target="sX3FHNxolE8uPbMF-0tE-43">
          <mxGeometry width="50" height="50" relative="1" as="geometry">
            <mxPoint x="400" y="2120" as="sourcePoint" />
            <mxPoint x="255" y="2070" as="targetPoint" />
          </mxGeometry>
        </mxCell>
        <mxCell id="sX3FHNxolE8uPbMF-0tE-47" value="" style="endArrow=classic;html=1;rounded=0;exitX=1;exitY=0.5;exitDx=0;exitDy=0;entryX=0.5;entryY=0;entryDx=0;entryDy=0;" edge="1" parent="1" source="sX3FHNxolE8uPbMF-0tE-41" target="sX3FHNxolE8uPbMF-0tE-45">
          <mxGeometry width="50" height="50" relative="1" as="geometry">
            <mxPoint x="435" y="2130" as="sourcePoint" />
            <mxPoint x="385" y="2160" as="targetPoint" />
          </mxGeometry>
        </mxCell>
        <mxCell id="sX3FHNxolE8uPbMF-0tE-56" style="edgeStyle=orthogonalEdgeStyle;rounded=0;orthogonalLoop=1;jettySize=auto;html=1;entryX=0;entryY=0.5;entryDx=0;entryDy=0;" edge="1" parent="1" source="sX3FHNxolE8uPbMF-0tE-48" target="sX3FHNxolE8uPbMF-0tE-2">
          <mxGeometry relative="1" as="geometry">
            <mxPoint x="480" y="730" as="targetPoint" />
            <Array as="points">
              <mxPoint x="240" y="2255" />
              <mxPoint x="240" y="175" />
            </Array>
          </mxGeometry>
        </mxCell>
        <mxCell id="sX3FHNxolE8uPbMF-0tE-48" value="&lt;font style=&quot;font-size: 18px;&quot;&gt;25&lt;/font&gt;" style="ellipse;whiteSpace=wrap;html=1;aspect=fixed;" vertex="1" parent="1">
          <mxGeometry x="275" y="2230" width="50" height="50" as="geometry" />
        </mxCell>
        <mxCell id="sX3FHNxolE8uPbMF-0tE-49" value="&lt;font style=&quot;font-size: 18px;&quot;&gt;26&lt;/font&gt;" style="ellipse;whiteSpace=wrap;html=1;aspect=fixed;" vertex="1" parent="1">
          <mxGeometry x="375" y="2230" width="50" height="50" as="geometry" />
        </mxCell>
        <mxCell id="sX3FHNxolE8uPbMF-0tE-50" value="" style="edgeStyle=orthogonalEdgeStyle;rounded=0;orthogonalLoop=1;jettySize=auto;html=1;" edge="1" source="sX3FHNxolE8uPbMF-0tE-51" target="sX3FHNxolE8uPbMF-0tE-52" parent="1">
          <mxGeometry relative="1" as="geometry" />
        </mxCell>
        <mxCell id="sX3FHNxolE8uPbMF-0tE-51" value="&lt;font style=&quot;font-size: 18px;&quot;&gt;28&lt;/font&gt;" style="ellipse;whiteSpace=wrap;html=1;aspect=fixed;" vertex="1" parent="1">
          <mxGeometry x="480" y="2230" width="50" height="50" as="geometry" />
        </mxCell>
        <mxCell id="sX3FHNxolE8uPbMF-0tE-57" style="edgeStyle=orthogonalEdgeStyle;rounded=0;orthogonalLoop=1;jettySize=auto;html=1;entryX=1;entryY=0.5;entryDx=0;entryDy=0;" edge="1" parent="1" source="sX3FHNxolE8uPbMF-0tE-52" target="sX3FHNxolE8uPbMF-0tE-6">
          <mxGeometry relative="1" as="geometry">
            <mxPoint x="740" y="1630" as="targetPoint" />
            <Array as="points">
              <mxPoint x="600" y="2335" />
              <mxPoint x="600" y="495" />
            </Array>
          </mxGeometry>
        </mxCell>
        <mxCell id="sX3FHNxolE8uPbMF-0tE-52" value="&lt;font style=&quot;font-size: 18px;&quot;&gt;29&lt;/font&gt;" style="ellipse;whiteSpace=wrap;html=1;aspect=fixed;" vertex="1" parent="1">
          <mxGeometry x="480" y="2310" width="50" height="50" as="geometry" />
        </mxCell>
        <mxCell id="sX3FHNxolE8uPbMF-0tE-54" value="" style="endArrow=classic;html=1;rounded=0;exitX=0;exitY=0.5;exitDx=0;exitDy=0;" edge="1" parent="1" source="sX3FHNxolE8uPbMF-0tE-43">
          <mxGeometry width="50" height="50" relative="1" as="geometry">
            <mxPoint x="170" y="2430" as="sourcePoint" />
            <mxPoint x="300" y="2230" as="targetPoint" />
          </mxGeometry>
        </mxCell>
        <mxCell id="sX3FHNxolE8uPbMF-0tE-55" value="" style="endArrow=classic;html=1;rounded=0;exitX=1;exitY=0.5;exitDx=0;exitDy=0;entryX=0.5;entryY=0;entryDx=0;entryDy=0;" edge="1" parent="1" source="sX3FHNxolE8uPbMF-0tE-43" target="sX3FHNxolE8uPbMF-0tE-49">
          <mxGeometry width="50" height="50" relative="1" as="geometry">
            <mxPoint x="335" y="2185" as="sourcePoint" />
            <mxPoint x="310" y="2240" as="targetPoint" />
          </mxGeometry>
        </mxCell>
      </root>
    </mxGraphModel>
  </diagram>
</mxfile>
